<svg width="45" height="45" viewBox="0 0 45 45" fill="none" xmlns="http://www.w3.org/2000/svg">
<path d="M15.75 0C7.07819 0 0 7.07819 0 15.75C0 24.4219 7.07819 31.5001 15.75 31.5001C19.6831 31.5001 23.2763 30.0331 26.0421 27.6329L27.0001 28.5909V31.5001L39.5685 44.0685C40.8105 45.3105 42.8265 45.3105 44.0685 44.0685C45.3105 42.8265 45.3105 40.8105 44.0685 39.5685L31.5001 27.0001H28.5909L27.6329 26.0421C30.0331 23.2763 31.5001 19.6831 31.5001 15.75C31.5001 7.07819 24.4219 0 15.75 0ZM15.75 4.50001C21.9899 4.50001 27.0001 9.51018 27.0001 15.75C27.0001 21.9899 21.9899 27.0001 15.75 27.0001C9.51018 27.0001 4.50001 21.9899 4.50001 15.75C4.50001 9.51018 9.51018 4.50001 15.75 4.50001Z" fill="white"/>
</svg>
